<?xml version="1.0" encoding="utf-8"?>
<!-- Generator: Adobe Illustrator 19.1.0, SVG Export Plug-In . SVG Version: 6.00 Build 0)  -->
<!DOCTYPE svg PUBLIC "-//W3C//DTD SVG 1.1//EN" "http://www.w3.org/Graphics/SVG/1.1/DTD/svg11.dtd">
<svg version="1.1" id="Layer_1" xmlns="http://www.w3.org/2000/svg" xmlns:xlink="http://www.w3.org/1999/xlink" x="0px" y="0px"
	 viewBox="0 0 202 130" enable-background="new 0 0 202 130" xml:space="preserve">
<g>
	<g>
		<path fill="#2B7138" d="M101.6,0C39.5,0,25.5,55,25.5,55l76.1,75l76.1-75C177.7,55,163.8,0,101.6,0z"/>
		<path fill="#FFFFFF" d="M101.6,3.5c-57.3,0-70.2,50.7-70.2,50.7l70.2,69.2l70.2-69.2C171.8,54.2,159,3.5,101.6,3.5z"/>
		<path fill="#2B7138" d="M101.6,6.8c-52.8,0-64.7,46.7-64.7,46.7l64.8,64.3l64.6-64.3C166.3,53.6,154.5,6.8,101.6,6.8z"/>
	</g>
	<path fill="#31AC4A" d="M101.7,105.8c3.4,0,6.4,1.4,8.6,3.6l40.6-40.6l-40.6-40.6c-2.2,2.2-5.2,3.6-8.6,3.6c-3.4,0-6.4-1.4-8.6-3.6
		L52.6,68.7l40.6,40.6C95.3,107.1,98.4,105.8,101.7,105.8z"/>
	
		<rect x="98.5" y="21.5" transform="matrix(0.7071 0.7071 -0.7071 0.7071 47.1426 -64.6611)" fill="#E6E7E8" width="6.2" height="6.2"/>
	<polygon fill="#E6E7E8" points="97.3,110 97.3,113.5 101.7,117.9 106.2,113.5 106.2,110 	"/>
</g>
<polygon fill="#FFFFFF" points="10.5,82.2 195.8,82.2 195.8,39.2 6.3,39.2 "/>
<polygon fill="#2B7138" points="1.2,37.2 5.5,84.3 196.6,84.3 200.9,37.2 "/>
<polygon fill="#FFFFFF" points="193.7,82.2 8.4,82.2 4.2,39.2 197.9,39.2 "/>
<g>
	<path fill="#2B7138" d="M18.9,46.4c0.7,0,1.4,0.1,2,0.4c0.6,0.3,1.2,0.6,1.6,1.1c0.5,0.5,0.8,1,1.1,1.6c0.3,0.6,0.4,1.3,0.4,2v18.3
		c0,0.7-0.1,1.4-0.4,2c-0.3,0.6-0.6,1.2-1.1,1.6c-0.5,0.5-1,0.8-1.6,1.1c-0.6,0.3-1.3,0.4-2,0.4h-6.1c-0.4,0-0.6-0.2-0.6-0.6V47
		c0-0.4,0.2-0.6,0.6-0.6H18.9z M19.2,51.8c0-0.3-0.1-0.5-0.3-0.7c-0.2-0.2-0.4-0.3-0.7-0.3h-1.3v19.9h1.3c0.3,0,0.5-0.1,0.7-0.3
		c0.2-0.2,0.3-0.4,0.3-0.7V51.8z"/>
	<path fill="#2B7138" d="M35.4,47v27.5c0,0.4-0.2,0.6-0.6,0.6h-3.6c-0.4,0-0.6-0.2-0.6-0.6V53.9c-0.4,0.3-0.8,0.5-1.3,0.8
		c-0.5,0.3-1,0.5-1.5,0.5c-0.2,0.1-0.3,0-0.4-0.1c-0.1-0.1-0.2-0.2-0.2-0.4v-3.1c0-0.1,0-0.3,0.1-0.4c0.1-0.1,0.2-0.2,0.3-0.2
		c0.6-0.2,1.2-0.6,1.7-1c0.5-0.4,0.9-0.8,1.3-1.4c0.4-0.6,0.6-1.2,0.8-2c0.1-0.2,0.2-0.3,0.5-0.3h3C35.2,46.5,35.4,46.6,35.4,47z"/>
	<path fill="#2B7138" d="M49.6,60.8c0.4,0.4,0.7,0.8,0.9,1.4c0.2,0.5,0.3,1.1,0.3,1.7v6.1c0,0.7-0.1,1.4-0.4,2
		c-0.3,0.6-0.6,1.2-1.1,1.6c-0.5,0.5-1,0.8-1.6,1.1c-0.6,0.3-1.3,0.4-2,0.4h-6.1c-0.4,0-0.6-0.2-0.6-0.6V47c0-0.4,0.2-0.6,0.6-0.6
		h6.1c0.7,0,1.4,0.1,2,0.4c0.6,0.3,1.2,0.6,1.6,1.1c0.5,0.5,0.8,1,1.1,1.6c0.3,0.6,0.4,1.3,0.4,2v4.1c0,1.3-0.4,2.3-1.1,3.2
		c-0.4,0.4-0.9,0.8-1.5,1.1C48.7,60.1,49.2,60.4,49.6,60.8z M45.9,51.8c0-0.3-0.1-0.5-0.3-0.7c-0.2-0.2-0.4-0.3-0.7-0.3h-1.3v7H45
		c0.3,0,0.5-0.1,0.7-0.3c0.2-0.2,0.3-0.4,0.3-0.7V51.8z M45.9,63.2c0-0.3-0.1-0.5-0.3-0.7c-0.2-0.2-0.4-0.3-0.7-0.3h-1.3v8.5H45
		c0.3,0,0.5-0.1,0.7-0.3c0.2-0.2,0.3-0.4,0.3-0.7V63.2z"/>
	<path fill="#2B7138" d="M65.3,74.5c0.1,0.4-0.1,0.6-0.5,0.6H61c-0.4,0-0.6-0.2-0.6-0.6l-0.3-4.4h-2.5l-0.3,4.4
		c-0.1,0.4-0.3,0.6-0.6,0.6h-3.7c-0.4,0-0.5-0.2-0.5-0.6L55.5,47c0.1-0.4,0.3-0.6,0.7-0.6h5.4c0.4,0,0.6,0.2,0.7,0.6L65.3,74.5z
		 M59.8,65.5L59,54.4h-0.3l-0.8,11.1H59.8z"/>
	<path fill="#2B7138" d="M76.1,46.5c0.6,0.3,1.2,0.6,1.6,1.1c0.5,0.5,0.8,1,1.1,1.6c0.3,0.6,0.4,1.3,0.4,2v1.6
		c0,0.4-0.2,0.6-0.5,0.7l-3.7,1c-0.4,0.1-0.5,0-0.5-0.4v-2.7c0-0.3-0.1-0.5-0.3-0.7c-0.2-0.2-0.4-0.3-0.7-0.3h-0.3
		c-0.3,0-0.5,0.1-0.7,0.3c-0.2,0.2-0.3,0.4-0.3,0.7v3.7c0,0.3,0.1,0.6,0.2,0.8c0.1,0.2,0.2,0.4,0.5,0.7l5.4,4
		c0.4,0.4,0.7,0.8,0.8,1.2c0.1,0.4,0.2,0.8,0.3,1.3v7c0,0.7-0.1,1.4-0.4,2c-0.3,0.6-0.6,1.2-1.1,1.6c-0.5,0.5-1,0.8-1.6,1.1
		c-0.6,0.3-1.3,0.4-2,0.4h-1.6c-0.7,0-1.4-0.1-2-0.4c-0.6-0.3-1.2-0.6-1.6-1.1c-0.5-0.5-0.8-1-1.1-1.6c-0.3-0.6-0.4-1.3-0.4-2v-3.9
		c0-0.4,0.2-0.6,0.5-0.7l3.7-1c0.4-0.1,0.5,0,0.5,0.4v5c0,0.3,0.1,0.5,0.3,0.7c0.2,0.2,0.4,0.3,0.7,0.3h0.3c0.3,0,0.5-0.1,0.7-0.3
		c0.2-0.2,0.3-0.4,0.3-0.7v-5.4c0-0.4-0.1-0.7-0.2-0.9c-0.1-0.3-0.2-0.5-0.5-0.7l-5.3-4.1c-0.4-0.4-0.7-0.8-0.9-1.1
		c-0.2-0.4-0.3-0.9-0.3-1.5v-4.9c0-0.7,0.1-1.4,0.4-2c0.3-0.6,0.6-1.2,1.1-1.6c0.5-0.5,1-0.8,1.6-1.1c0.6-0.3,1.3-0.4,2-0.4h1.6
		C74.8,46.1,75.4,46.3,76.1,46.5z"/>
	<path fill="#2B7138" d="M92.3,70.8v3.6c0,0.4-0.2,0.6-0.6,0.6h-8.9c-0.4,0-0.6-0.2-0.6-0.6V47c0-0.4,0.2-0.6,0.6-0.6h8.9
		c0.4,0,0.6,0.2,0.6,0.6v3.6c0,0.4-0.2,0.6-0.6,0.6h-4.7v5.9h4.1c0.4,0,0.6,0.2,0.6,0.6v3.6c0,0.4-0.2,0.6-0.6,0.6h-4.1v8.4h4.7
		C92.1,70.3,92.3,70.5,92.3,70.8z"/>
	<path fill="#2B7138" d="M106.5,60.8c0.4,0.4,0.7,0.8,0.9,1.4c0.2,0.5,0.3,1.1,0.3,1.7v6.1c0,0.7-0.1,1.4-0.4,2
		c-0.3,0.6-0.6,1.2-1.1,1.6c-0.5,0.5-1,0.8-1.6,1.1c-0.6,0.3-1.3,0.4-2,0.4h-6.1c-0.4,0-0.6-0.2-0.6-0.6V47c0-0.4,0.2-0.6,0.6-0.6
		h6.1c0.7,0,1.4,0.1,2,0.4c0.6,0.3,1.2,0.6,1.6,1.1c0.5,0.5,0.8,1,1.1,1.6c0.3,0.6,0.4,1.3,0.4,2v4.1c0,1.3-0.4,2.3-1.1,3.2
		c-0.4,0.4-0.9,0.8-1.5,1.1C105.7,60.1,106.2,60.4,106.5,60.8z M102.9,51.8c0-0.3-0.1-0.5-0.3-0.7c-0.2-0.2-0.4-0.3-0.7-0.3h-1.3v7
		h1.3c0.3,0,0.5-0.1,0.7-0.3c0.2-0.2,0.3-0.4,0.3-0.7V51.8z M102.9,63.2c0-0.3-0.1-0.5-0.3-0.7c-0.2-0.2-0.4-0.3-0.7-0.3h-1.3v8.5
		h1.3c0.3,0,0.5-0.1,0.7-0.3c0.2-0.2,0.3-0.4,0.3-0.7V63.2z"/>
	<path fill="#2B7138" d="M122.2,74.5c0.1,0.4-0.1,0.6-0.5,0.6H118c-0.4,0-0.6-0.2-0.6-0.6l-0.3-4.4h-2.5l-0.3,4.4
		c-0.1,0.4-0.3,0.6-0.6,0.6h-3.7c-0.4,0-0.5-0.2-0.5-0.6l3.1-27.5c0.1-0.4,0.3-0.6,0.7-0.6h5.4c0.4,0,0.6,0.2,0.7,0.6L122.2,74.5z
		 M116.7,65.5L116,54.4h-0.3l-0.8,11.1H116.7z"/>
	<path fill="#2B7138" d="M135.6,70.8v3.6c0,0.4-0.2,0.6-0.6,0.6h-5.5h-0.1h0h-3.6c-0.4,0-0.6-0.2-0.6-0.6V47c0-0.4,0.2-0.6,0.6-0.6
		h3.6c0.4,0,0.6,0.2,0.6,0.6v23.3h5.1C135.4,70.3,135.6,70.5,135.6,70.8z"/>
	<path fill="#2B7138" d="M149.1,70.8v3.6c0,0.4-0.2,0.6-0.6,0.6H143h-0.1h0h-3.6c-0.4,0-0.6-0.2-0.6-0.6V47c0-0.4,0.2-0.6,0.6-0.6
		h3.6c0.4,0,0.6,0.2,0.6,0.6v23.3h5.1C148.9,70.3,149.1,70.5,149.1,70.8z"/>
	<path fill="#2B7138" d="M150.9,72.7c0-0.7,0.3-1.3,0.8-1.8c0.5-0.5,1.1-0.8,1.8-0.8c0.7,0,1.3,0.3,1.8,0.8c0.5,0.5,0.8,1.1,0.8,1.8
		c0,0.7-0.3,1.3-0.8,1.8c-0.5,0.5-1.1,0.8-1.8,0.8c-0.7,0-1.3-0.3-1.8-0.8C151.2,74.1,150.9,73.4,150.9,72.7z"/>
	<path fill="#2B7138" d="M164.1,55.1c0.4,0.2,0.8,0.4,1.1,0.8c0.3,0.3,0.6,0.7,0.8,1.1c0.2,0.4,0.3,0.9,0.3,1.4v2.3
		c0,0.3-0.1,0.4-0.4,0.5l-2.6,0.4c-0.2,0.1-0.4,0-0.4-0.3v-2.8c0-0.2-0.1-0.4-0.2-0.5c-0.1-0.1-0.3-0.2-0.5-0.2H162
		c-0.2,0-0.4,0.1-0.5,0.2c-0.1,0.1-0.2,0.3-0.2,0.5v13c0,0.2,0.1,0.4,0.2,0.5c0.1,0.1,0.3,0.2,0.5,0.2h0.2c0.2,0,0.4-0.1,0.5-0.2
		c0.1-0.1,0.2-0.3,0.2-0.5v-4c0-0.3,0.1-0.4,0.4-0.3l2.6,0.3c0.2,0.1,0.4,0.2,0.4,0.5v3.6c0,0.5-0.1,1-0.3,1.4
		c-0.2,0.4-0.4,0.8-0.8,1.1c-0.3,0.3-0.7,0.6-1.1,0.8c-0.4,0.2-0.9,0.3-1.4,0.3h-1.1c-0.5,0-1-0.1-1.4-0.3c-0.4-0.2-0.8-0.4-1.1-0.8
		c-0.3-0.3-0.6-0.7-0.8-1.1c-0.2-0.4-0.3-0.9-0.3-1.4V58.4c0-0.5,0.1-1,0.3-1.4c0.2-0.4,0.4-0.8,0.8-1.1c0.3-0.3,0.7-0.6,1.1-0.8
		c0.4-0.2,0.9-0.3,1.4-0.3h1.1C163.2,54.8,163.6,54.9,164.1,55.1z"/>
	<path fill="#2B7138" d="M176.5,71.7c0,0.5-0.1,1-0.3,1.4c-0.2,0.4-0.4,0.8-0.8,1.1c-0.3,0.3-0.7,0.6-1.1,0.8
		c-0.4,0.2-0.9,0.3-1.4,0.3h-1.1c-0.5,0-1-0.1-1.4-0.3c-0.4-0.2-0.8-0.4-1.1-0.8c-0.3-0.3-0.6-0.7-0.8-1.1c-0.2-0.4-0.3-0.9-0.3-1.4
		V58.4c0-0.5,0.1-1,0.3-1.4c0.2-0.4,0.4-0.8,0.8-1.1c0.3-0.3,0.7-0.6,1.1-0.8c0.4-0.2,0.9-0.3,1.4-0.3h1.1c0.5,0,1,0.1,1.4,0.3
		c0.4,0.2,0.8,0.4,1.1,0.8c0.3,0.3,0.6,0.7,0.8,1.1c0.2,0.4,0.3,0.9,0.3,1.4V71.7z M173.1,58.6c0-0.2-0.1-0.4-0.2-0.5
		c-0.1-0.1-0.3-0.2-0.5-0.2h-0.2c-0.2,0-0.4,0.1-0.5,0.2c-0.1,0.1-0.2,0.3-0.2,0.5v13c0,0.2,0.1,0.4,0.2,0.5
		c0.1,0.1,0.3,0.2,0.5,0.2h0.2c0.2,0,0.4-0.1,0.5-0.2c0.1-0.1,0.2-0.3,0.2-0.5V58.6z"/>
	<path fill="#2B7138" d="M189.9,55.4v19.3c0,0.3-0.1,0.4-0.4,0.4h-2.8c-0.3,0-0.4-0.1-0.4-0.4v-9.1l-1.9,7.4c0,0.1-0.1,0.1-0.1,0.1
		c-0.1,0-0.1,0-0.1-0.1l-1.9-7.4v9.1c0,0.3-0.1,0.4-0.4,0.4h-2.8c-0.3,0-0.4-0.1-0.4-0.4V55.4c0-0.3,0.1-0.4,0.4-0.4h2.4
		c0.1,0,0.2,0,0.3,0.1c0.1,0.1,0.1,0.2,0.2,0.3l2.3,10.3l2.3-10.3c0-0.1,0.1-0.2,0.2-0.3c0.1-0.1,0.2-0.1,0.3-0.1h2.4
		C189.8,55,189.9,55.1,189.9,55.4z"/>
</g>
</svg>
